<svg xmlns="http://www.w3.org/2000/svg" width="172.25" height="55.877" viewBox="0 0 172.25 55.877">
  <g id="Website" transform="translate(-2.625 -2.658)">
    <g id="Home-Page" transform="translate(2.625 2.658)">
      <g id="Top-Section" transform="translate(0 0)">
        <g id="Text" transform="translate(0 0)">
          <g id="Download" transform="translate(0 0)">
            <g id="Group" transform="translate(0 0)">
              <g id="Path">
                <path id="Path_10" data-name="Path 10" d="M13.685,58.532c-.445,0-.879-.006-1.321-.016a18.533,18.533,0,0,1-2.73-.238,8.6,8.6,0,0,1-2.42-.8,7.9,7.9,0,0,1-2.041-1.485,7.772,7.772,0,0,1-1.491-2.04,8.358,8.358,0,0,1-.793-2.421,18.133,18.133,0,0,1-.243-2.739c-.009-.308-.021-1.334-.021-1.334V13.715s.013-1.01.021-1.307a18.07,18.07,0,0,1,.242-2.735,8.407,8.407,0,0,1,.794-2.428A7.849,7.849,0,0,1,5.165,5.2,8.13,8.13,0,0,1,7.213,3.71a8.506,8.506,0,0,1,2.415-.795,18.385,18.385,0,0,1,2.74-.24l1.318-.018h150.12l1.334.019a18.091,18.091,0,0,1,2.715.238,8.675,8.675,0,0,1,2.441.8,8.171,8.171,0,0,1,3.528,3.535,8.417,8.417,0,0,1,.782,2.409,18.984,18.984,0,0,1,.254,2.757c0,.414,0,.858,0,1.3.012.548.012,1.069.012,1.595V45.881c0,.531,0,1.049-.012,1.571,0,.475,0,.91-.006,1.358a18.6,18.6,0,0,1-.25,2.708,8.382,8.382,0,0,1-.789,2.439,8.005,8.005,0,0,1-1.484,2.024,7.907,7.907,0,0,1-2.044,1.494,8.562,8.562,0,0,1-2.437.8,18.321,18.321,0,0,1-2.73.238c-.428.01-.876.016-1.311.016l-1.583,0Z" transform="translate(-2.625 -2.658)" fill="currentColor"/>
              </g>
              <g id="_Group_" transform="translate(12.761 10.184)">
                <g id="_Group_2" transform="translate(0 0)">
                  <g id="_Group_3">
                    <path id="_Path_" d="M32.55,102.135a7.517,7.517,0,0,1,3.58-6.307,7.7,7.7,0,0,0-6.063-3.278c-2.551-.268-5.024,1.526-6.324,1.526-1.325,0-3.326-1.5-5.481-1.455a8.074,8.074,0,0,0-6.795,4.144c-2.938,5.086-.746,12.562,2.068,16.673,1.408,2.013,3.054,4.262,5.207,4.182,2.107-.087,2.894-1.344,5.437-1.344,2.52,0,3.258,1.344,5.455,1.293,2.261-.037,3.685-2.022,5.044-4.055a16.652,16.652,0,0,0,2.307-4.7A7.264,7.264,0,0,1,32.55,102.135Z" transform="translate(-10.072 -84.544)" fill="#fff"/>
                    <path id="_Path_2" d="M166.663,7.5a7.4,7.4,0,0,0,1.693-5.3,7.531,7.531,0,0,0-4.872,2.521,7.043,7.043,0,0,0-1.737,5.106A6.227,6.227,0,0,0,166.663,7.5Z" transform="translate(-148.335 -2.193)" fill="#fff"/>
                  </g>
                </g>
                <g id="Group-2" data-name="Group" transform="translate(36.253 14.643)">
                  <path id="Shape" d="M18.561,19.253H11.647l-1.66,4.9H7.058l6.549-18.14H16.65L23.2,24.156H20.22Zm-6.2-2.262h5.481l-2.7-7.957h-.076Z" transform="translate(-7.058 -5.714)" fill="#fff"/>
                  <path id="Shape-2" data-name="Shape" d="M221.333,66.811c0,4.11-2.2,6.75-5.519,6.75a4.484,4.484,0,0,1-4.161-2.314h-.063V77.8h-2.715V60.2H211.5v2.2h.05a4.691,4.691,0,0,1,4.211-2.338C219.121,60.059,221.333,62.713,221.333,66.811Zm-2.79,0c0-2.678-1.384-4.438-3.495-4.438-2.074,0-3.469,1.8-3.469,4.438,0,2.665,1.4,4.449,3.469,4.449,2.111,0,3.495-1.747,3.495-4.449Z" transform="translate(-191.048 -54.981)" fill="#fff"/>
                  <path id="Shape-3" data-name="Shape" d="M386.121,66.811c0,4.11-2.2,6.75-5.52,6.75a4.483,4.483,0,0,1-4.161-2.314h-.063V77.8h-2.715V60.2h2.628v2.2h.05a4.691,4.691,0,0,1,4.211-2.338C383.908,60.059,386.121,62.713,386.121,66.811Zm-2.791,0c0-2.678-1.384-4.438-3.495-4.438-2.074,0-3.469,1.8-3.469,4.438,0,2.665,1.4,4.449,3.469,4.449,2.111,0,3.495-1.747,3.495-4.449Z" transform="translate(-341.279 -54.981)" fill="#fff"/>
                  <path id="Path-2" data-name="Path" d="M594.918,15.98c.2,1.8,1.949,2.98,4.337,2.98,2.288,0,3.934-1.181,3.934-2.8,0-1.408-.993-2.251-3.344-2.829l-2.351-.566c-3.331-.8-4.877-2.362-4.877-4.89,0-3.13,2.727-5.28,6.6-5.28,3.835,0,6.462,2.15,6.551,5.28h-2.74c-.164-1.81-1.66-2.9-3.847-2.9S595.5,6.074,595.5,7.684c0,1.282.956,2.037,3.294,2.615l2,.491c3.722.88,5.267,2.375,5.267,5.028,0,3.394-2.7,5.519-7,5.519-4.023,0-6.739-2.076-6.914-5.357Z" transform="translate(-540.457 -2.592)" fill="#fff"/>
                  <path id="Path-3" data-name="Path" d="M768.037,26.22v3.13h2.515V31.5h-2.515V38.79c0,1.133.5,1.66,1.609,1.66a8.484,8.484,0,0,0,.893-.063v2.137a7.455,7.455,0,0,1-1.508.126c-2.678,0-3.722-1.006-3.722-3.571V31.5h-1.923v-2.15h1.923V26.22Z" transform="translate(-696.578 -24.132)" fill="#fff"/>
                  <path id="Shape-4" data-name="Shape" d="M860.978,66.586c0-4.161,2.451-6.776,6.272-6.776s6.274,2.615,6.274,6.776-2.427,6.776-6.274,6.776S860.978,70.759,860.978,66.586Zm9.78,0c0-2.854-1.308-4.539-3.508-4.539s-3.508,1.7-3.508,4.539c0,2.866,1.308,4.538,3.508,4.538s3.508-1.672,3.508-4.538Z" transform="translate(-785.548 -54.756)" fill="#fff"/>
                  <path id="Path-4" data-name="Path" d="M1028.349,60.2h2.589V62.45H1031a3.154,3.154,0,0,1,3.181-2.389,4.185,4.185,0,0,1,.93.1V62.7a3.794,3.794,0,0,0-1.22-.164,2.735,2.735,0,0,0-2.829,3.043v7.844h-2.715Z" transform="translate(-938.135 -54.982)" fill="#fff"/>
                  <path id="Shape-5" data-name="Shape" d="M1123.48,69.314c-.365,2.4-2.7,4.048-5.695,4.048-3.847,0-6.235-2.578-6.235-6.713s2.4-6.839,6.121-6.839c3.659,0,5.96,2.514,5.96,6.523v.93h-9.341v.164a3.445,3.445,0,0,0,3.558,3.746,2.992,2.992,0,0,0,3.054-1.86Zm-9.177-3.947h6.612a3.181,3.181,0,0,0-3.244-3.357,3.348,3.348,0,0,0-3.368,3.357Z" transform="translate(-1013.987 -54.756)" fill="#fff"/>
                </g>
              </g>
            </g>
            <g id="Group-3" data-name="Group" transform="translate(50.831 11.046)">
              <path id="Shape-6" data-name="Shape" d="M14.243,11.986a3.856,3.856,0,0,1,4.1,4.331c0,2.785-1.5,4.385-4.1,4.385H11.095V11.986ZM12.449,19.47h1.643a2.74,2.74,0,0,0,2.874-3.135,2.748,2.748,0,0,0-2.874-3.117H12.449Z" transform="translate(-11.095 -11.557)" fill="#fff"/>
              <path id="Shape-7" data-name="Shape" d="M110.326,38.272a3.116,3.116,0,1,1,6.2,0,3.117,3.117,0,1,1-6.2,0Zm4.869,0c0-1.426-.641-2.26-1.765-2.26s-1.763.834-1.763,2.26.635,2.265,1.763,2.265,1.765-.833,1.765-2.265Z" transform="translate(-101.547 -32.418)" fill="#fff"/>
              <path id="Path-5" data-name="Path" d="M198.631,42.873h-1.347l-1.359-4.844h-.1l-1.354,4.844h-1.334L191.321,36.3h1.317l1.178,5.019h.1l1.352-5.019h1.245l1.352,5.019h.1l1.173-5.019h1.3Z" transform="translate(-175.401 -33.728)" fill="#fff"/>
              <path id="Path-6" data-name="Path" d="M311.779,34.918h1.25v1.045h.1a1.969,1.969,0,0,1,1.963-1.172,2.139,2.139,0,0,1,2.277,2.446V41.5h-1.3V37.563c0-1.057-.459-1.583-1.419-1.583a1.509,1.509,0,0,0-1.571,1.667V41.5h-1.3Z" transform="translate(-285.219 -32.35)" fill="#fff"/>
              <path id="Path-7" data-name="Path" d="M398.436,7.227h1.3v9.145h-1.3Z" transform="translate(-364.221 -7.227)" fill="#fff"/>
              <path id="Shape-8" data-name="Shape" d="M433.41,38.271a3.116,3.116,0,1,1,6.2,0,3.117,3.117,0,1,1-6.2,0Zm4.869,0c0-1.426-.641-2.26-1.765-2.26s-1.763.834-1.763,2.26.635,2.265,1.763,2.265,1.765-.833,1.765-2.265Z" transform="translate(-396.092 -32.417)" fill="#fff"/>
              <path id="Shape-9" data-name="Shape" d="M519.274,39.7c0-1.184.882-1.867,2.447-1.964l1.782-.1v-.568c0-.695-.459-1.087-1.347-1.087-.725,0-1.227.266-1.371.731h-1.257c.133-1.13,1.2-1.854,2.688-1.854,1.649,0,2.579.821,2.579,2.21v4.494h-1.25v-.924h-.1a2.213,2.213,0,0,1-1.976,1.033,1.987,1.987,0,0,1-2.193-1.969Zm4.228-.562v-.55l-1.606.1c-.906.061-1.317.369-1.317.949s.514.937,1.22.937a1.551,1.551,0,0,0,1.7-1.438Z" transform="translate(-474.385 -32.418)" fill="#fff"/>
              <path id="Shape-10" data-name="Shape" d="M601.086,13.08c0-2.078,1.068-3.4,2.73-3.4a2.168,2.168,0,0,1,2.017,1.154h.1V7.227h1.3v9.145h-1.244V15.333h-.1a2.283,2.283,0,0,1-2.066,1.148C602.143,16.481,601.086,15.164,601.086,13.08Zm1.341,0c0,1.4.658,2.235,1.758,2.235s1.77-.852,1.77-2.229-.683-2.235-1.77-2.235-1.758.845-1.758,2.229Z" transform="translate(-548.97 -7.227)" fill="#fff"/>
              <path id="Shape-11" data-name="Shape" d="M731.276,38.272a3.116,3.116,0,1,1,6.2,0,3.117,3.117,0,1,1-6.2,0Zm4.869,0c0-1.426-.641-2.26-1.765-2.26s-1.763.834-1.763,2.26.635,2.265,1.763,2.265S736.144,39.7,736.144,38.272Z" transform="translate(-667.646 -32.418)" fill="#fff"/>
              <path id="Path-8" data-name="Path" d="M821.379,34.918h1.25v1.045h.1a1.969,1.969,0,0,1,1.963-1.172,2.139,2.139,0,0,1,2.277,2.446V41.5h-1.3V37.563c0-1.057-.459-1.583-1.419-1.583a1.509,1.509,0,0,0-1.571,1.667V41.5h-1.3Z" transform="translate(-749.804 -32.35)" fill="#fff"/>
              <path id="Path-9" data-name="Path" d="M943.47,17.756v1.668H944.9v1.093H943.47V23.9c0,.689.284.991.93.991a4.334,4.334,0,0,0,.495-.03v1.081a4.259,4.259,0,0,1-.706.066c-1.444,0-2.019-.508-2.019-1.776V20.517h-1.044V19.424h1.044V17.756Z" transform="translate(-858.974 -16.826)" fill="#fff"/>
              <path id="Path-10" data-name="Path" d="M1003.866,7.227h1.287v3.625h.1a2.024,2.024,0,0,1,2.006-1.178,2.167,2.167,0,0,1,2.265,2.452v4.247h-1.3V12.446c0-1.051-.489-1.583-1.406-1.583a1.537,1.537,0,0,0-1.656,1.668v3.842h-1.3Z" transform="translate(-916.172 -7.227)" fill="#fff"/>
              <path id="Shape-12" data-name="Shape" d="M1092.57,39.786a2.67,2.67,0,0,1-2.85,1.9,2.988,2.988,0,0,1-3.038-3.4,3.034,3.034,0,0,1,3.033-3.436c1.83,0,2.934,1.25,2.934,3.316v.453H1088V38.7a1.739,1.739,0,0,0,1.752,1.884,1.577,1.577,0,0,0,1.565-.8ZM1088,37.666h3.322a1.587,1.587,0,0,0-1.619-1.7,1.682,1.682,0,0,0-1.7,1.7Z" transform="translate(-991.646 -32.416)" fill="#fff"/>
            </g>
          </g>
        </g>
      </g>
    </g>
  </g>
</svg>
