<svg xmlns="http://www.w3.org/2000/svg" xmlns:xlink="http://www.w3.org/1999/xlink" width="198.95" height="198.95" viewBox="0 0 198.95 198.95">
  <defs>
    <linearGradient id="linear-gradient" x1="0.12" y1="0.345" x2="1" y2="0.563" gradientUnits="objectBoundingBox">
      <stop offset="0" stop-color="#e7a649"/>
      <stop offset="1" stop-color="#b9476d"/>
    </linearGradient>
  </defs>
  <g id="Component_5_2" data-name="Component 5 – 2" transform="translate(146.447 198.95) rotate(-135)">
    <path id="Union_10" data-name="Union 10" d="M170.174,74.245l-.005,0L136.864,40.943,103.559,74.25l0,0,0,0L70.244,40.943,36.939,74.25l0,0-.005,0L0,37.322l3.628-3.629L36.934,67,70.239,33.693l.005,0,0,0L103.554,67l33.305-33.305.005,0,0,0L170.174,67l33.305-33.305,3.628,3.629L170.179,74.25Zm0-17.321-.005,0-33.305-33.3-33.305,33.3,0,0,0,0-33.305-33.3-33.305,33.3,0,0-.005,0L0,20l3.628-3.628,33.305,33.3,33.305-33.3.005,0,0,0,33.305,33.3,33.305-33.3.005,0,0,0,33.305,33.3,33.305-33.3L207.108,20,170.179,56.929Zm0-16.372-.005,0L136.864,7.252,103.559,40.557l0,0,0,0L70.244,7.252,36.939,40.557l0,0-.005,0L0,3.629,3.628,0,36.934,33.305,70.239,0l.005,0,0,0,33.305,33.305L136.859,0l.005,0,0,0,33.305,33.305L203.479,0l3.628,3.629L170.179,40.557Z" fill="url(#linear-gradient)"/>
  </g>
</svg>
