<svg xmlns="http://www.w3.org/2000/svg" xmlns:xlink="http://www.w3.org/1999/xlink" width="1152.365" height="412.729" viewBox="0 0 1152.365 412.729">
  <defs>
    <linearGradient id="linear-gradient" x1="0.12" y1="0.345" x2="1" y2="0.563" gradientUnits="objectBoundingBox">
      <stop offset="0" stop-color="#e7a649"/>
      <stop offset="1" stop-color="#b9476d"/>
    </linearGradient>
  </defs>
  <g id="Component_5_5" data-name="Component 5 – 5" transform="translate(1152.365 412.729) rotate(180)" opacity="0.174">
    <path id="Union_10" data-name="Union 10" d="M946.864,412.593l-.125.125L761.531,227.554,576.314,412.729l-.136-.137-.126.126L390.845,227.554,205.627,412.729l-.136-.137-.126.126L0,207.4l20.176-20.17L205.5,372.514,390.817,187.241l.017.017.028-.028L576.188,372.514,761.5,187.241l.017.017.028-.028L946.875,372.514l185.316-185.272,20.175,20.17L947,412.729Zm0-96.248-.125.125L761.531,131.307,576.314,316.481l-.136-.137-.126.126L390.845,131.307,205.627,316.481l-.136-.137-.126.126L0,111.153l20.176-20.17L205.5,276.266,390.817,90.993l.017.017.028-.028L576.188,276.266,761.5,90.993l.017.017.028-.028L946.875,276.266,1132.191,90.993l20.175,20.17L947,316.481Zm0-90.983-.125.125L761.531,40.324,576.314,225.5l-.136-.137-.126.126L390.845,40.324,205.627,225.5l-.136-.137-.126.126L0,20.17,20.176,0,205.5,185.283,390.817.011l.017.017L390.862,0,576.188,185.283,761.5.011l.017.017L761.548,0,946.875,185.283,1132.191.011l20.175,20.17L947,225.5Z" fill="url(#linear-gradient)"/>
  </g>
</svg>
